<?xml version="1.0" encoding="UTF-8"?>
<svg width="67px" height="67px" viewBox="0 0 67 67" version="1.1" xmlns="http://www.w3.org/2000/svg" xmlns:xlink="http://www.w3.org/1999/xlink">
    <!-- Generator: Sketch 44.1 (41455) - http://www.bohemiancoding.com/sketch -->
    <title>Page 1</title>
    <desc>Created with Sketch.</desc>
    <defs></defs>
    <g id="Page-1" stroke="none" stroke-width="1" fill="none" fill-rule="evenodd">
        <g id="iPad-Mobile-Menu-open" transform="translate(-67.000000, -20.000000)" fill="#F6A623">
            <path d="M100.497997,19.9999987 C91.5548374,19.9999987 83.1409774,23.4808497 76.8121574,29.8094687 C70.4864187,36.1352067 67.0000059,44.5494687 67.0000059,53.4999987 C66.9947715,62.4505287 70.475631,70.8650587 76.8067974,77.1905287 C83.1325354,83.5162681 91.5467974,87 100.492637,87 C109.445847,87 117.863057,83.5139231 124.188527,77.1858387 C137.250847,64.1261987 137.245487,42.8717887 124.188527,29.8094687 C117.862789,23.4837307 109.448527,19.9999987 100.497997,19.9999987 Z M100.497997,25.6897727 C107.925617,25.6897727 114.908357,28.5817607 120.165847,33.8316127 C131.006447,44.6775727 131.006447,62.3200127 120.165847,73.1626227 C114.907888,78.4179687 107.924947,81.3098221 100.492637,81.3098221 C93.0650174,81.3098221 86.0795974,78.4204477 80.8294774,73.1679827 C75.5820374,67.9153167 72.6903167,60.9297627 72.6903167,53.5001327 C72.6903167,46.0705027 75.5823054,39.0844127 80.8348374,33.8322827 C86.0875034,28.5848427 93.0703774,25.6904427 100.497997,25.6904427 L100.497997,25.6897727 Z M92.5812774,42.7379227 C91.8537244,42.7379227 91.1261044,43.0153429 90.5712774,43.5728097 C89.4589434,44.6851437 89.4589434,46.4831557 90.5712774,47.5954227 L96.4808784,53.5050237 L90.5712774,59.4146247 C89.4589434,60.5269587 89.4589434,62.3249707 90.5712774,63.4372377 C91.1261178,63.9920781 91.8537244,64.2721247 92.5812774,64.2721247 C93.3088304,64.2721247 94.0364504,63.9920848 94.5912774,63.4372377 L100.500878,57.5276367 L106.410479,63.4372377 C106.96532,63.9920781 107.692926,64.2721247 108.423092,64.2721247 C109.150645,64.2721247 109.880878,63.9920848 110.433092,63.4372377 C111.545426,62.3249037 111.545426,60.5268917 110.433092,59.4146247 L104.523491,53.5050237 L110.433092,47.5954227 C111.545426,46.4830887 111.545426,44.6850767 110.433092,43.5728097 C109.320758,42.4604757 107.522746,42.4604757 106.410479,43.5728097 L100.500878,49.4824107 L94.5912774,43.5728097 C94.0338173,43.0153496 93.3088304,42.7379227 92.5812774,42.7379227 Z" id="Page-1"></path>
        </g>
    </g>
</svg>