<?xml version="1.0" encoding="UTF-8"?>
<svg width="61px" height="61px" viewBox="0 0 61 61" version="1.1" xmlns="http://www.w3.org/2000/svg" xmlns:xlink="http://www.w3.org/1999/xlink">
    <!-- Generator: Sketch 44.1 (41455) - http://www.bohemiancoding.com/sketch -->
    <title>Page 1</title>
    <desc>Created with Sketch.</desc>
    <defs></defs>
    <g id="Page-1" stroke="none" stroke-width="1" fill="none" fill-rule="evenodd">
        <g id="iPad" transform="translate(-47.000000, -21.000000)" fill="#FFFFFF">
            <path d="M77.15,21.7 C60.52328,21.7 47,35.22328 47,51.85 C47,68.47672 60.52328,82 77.15,82 C93.77672,82 107.3,68.47672 107.3,51.85 C107.3,35.22328 93.77672,21.7 77.15,21.7 Z M77.15,25.72 C91.60458,25.72 103.28,37.39542 103.28,51.85 C103.28,66.30458 91.60458,77.98 77.15,77.98 C62.69542,77.98 51.02,66.30458 51.02,51.85 C51.02,37.39542 62.69542,25.72 77.15,25.72 Z M64.88096,41.8 C64.3470504,41.8287899 63.84715,42.0669548 63.491246,42.4621476 C63.1326888,42.8599601 62.946871,43.3807846 62.9756609,43.9147076 C63.0018311,44.4486172 63.2426157,44.9485176 63.6378085,45.3044216 C64.035621,45.6629788 64.5564455,45.8487966 65.0903685,45.8200067 L89.2103685,45.8200067 C89.7495108,45.8278591 90.2676955,45.6184841 90.6497965,45.2416091 C91.0345239,44.8647341 91.2491316,44.3491691 91.2491316,43.8100201 C91.2491316,43.2708711 91.0345239,42.7553061 90.6497965,42.3784311 C90.2676888,42.0015561 89.7494505,41.7921811 89.2103685,41.8000335 L65.0903685,41.8000335 C65.0197036,41.7974138 64.9516584,41.7974138 64.8809935,41.8000335 L64.88096,41.8 Z M64.88096,49.84 C64.3470504,49.8687899 63.84715,50.1069548 63.491246,50.5021476 C63.1326888,50.8999601 62.946871,51.4207846 62.9756609,51.9547076 C63.0018311,52.4886172 63.2426157,52.9885176 63.6378085,53.3444216 C64.035621,53.7029788 64.5564455,53.8887966 65.0903685,53.8600067 L89.2103685,53.8600067 C89.7495108,53.8678591 90.2676955,53.6584841 90.6497965,53.2816091 C91.0345239,52.9047341 91.2491316,52.3891691 91.2491316,51.8500201 C91.2491316,51.3108711 91.0345239,50.7953061 90.6497965,50.4184311 C90.2676888,50.0415561 89.7494505,49.8321811 89.2103685,49.8400335 L65.0903685,49.8400335 C65.0197036,49.8374138 64.9516584,49.8374138 64.8809935,49.8400335 L64.88096,49.84 Z M64.88096,57.88 C64.3470504,57.9087899 63.84715,58.1469548 63.491246,58.5421476 C63.1326888,58.9399601 62.946871,59.4607846 62.9756609,59.9947076 C63.0018311,60.5286172 63.2426157,61.0285176 63.6378085,61.3844216 C64.035621,61.7429788 64.5564455,61.9287966 65.0903685,61.9000067 L89.2103685,61.9000067 C89.7495108,61.9078591 90.2676955,61.6984841 90.6497965,61.3216091 C91.0345239,60.9447341 91.2491316,60.4291691 91.2491316,59.8900201 C91.2491316,59.3508711 91.0345239,58.8353061 90.6497965,58.4584311 C90.2676888,58.0815561 89.7494505,57.8721811 89.2103685,57.8800335 L65.0903685,57.8800335 C65.0197036,57.8774138 64.9516584,57.8774138 64.8809935,57.8800335 L64.88096,57.88 Z" id="Page-1"></path>
        </g>
    </g>
</svg>